<svg xmlns="http://www.w3.org/2000/svg" width="228.141" height="83.89" viewBox="0 0 228.141 83.89"><defs><style>.a{fill:#fff;}.b{fill:#ed3029;}.c{fill:none;}</style></defs><path class="a" d="M62.308,33.805V55.289H55.873a3.069,3.069,0,0,1-1.494-.389,2.987,2.987,0,0,1-1.586-2.629V39.1a3.386,3.386,0,0,0-3.417-3.356H36.844V55.115H27.33V27.36H55.72a5.565,5.565,0,0,1,1.023.082,6.476,6.476,0,0,1,5.565,6.363Z" transform="translate(0.63 0.631)"/><path class="a" d="M75.674,27.36V55.32H69.434a3.069,3.069,0,0,1-1.535-.389,3.274,3.274,0,0,1-1.739-2.9V27.36Z" transform="translate(1.525 0.631)"/><path class="a" d="M157.024,27.36V55.32h-6.4a3,3,0,0,1-1.5-.389,3.069,3.069,0,0,1-1.606-2.721V27.36Z" transform="translate(3.4 0.631)"/><path class="a" d="M196.428,41.314V55.32H190a3.069,3.069,0,0,1-1.5-.389,2.987,2.987,0,0,1-1.586-2.629V39.1a3.386,3.386,0,0,0-3.417-3.356H170.964V55.115H161.45V27.36H182.1l.082.082Z" transform="translate(3.722 0.631)"/><path class="b" d="M195.963,41.314h-7.7a6.251,6.251,0,0,1-1.811-.256,6.517,6.517,0,0,1-4.757-5.33,5.535,5.535,0,0,1-.072-.931V27.36l.082.082Z" transform="translate(4.187 0.631)"/><path class="a" d="M106.147,41.089v-.153c3.212-.6,4.276-2.957,4.276-5.75,0-4.992-2.343-7.315-6.394-7.745a11.97,11.97,0,0,0-1.514-.082H80.11V55.31h23.223a10.23,10.23,0,0,0,2.987-.389c3.141-.89,4.757-3.376,4.757-7.448C111.078,43.893,110.188,41.816,106.147,41.089Zm-6.363,3.755a2.107,2.107,0,0,1,2.138,2.046v.839a2.118,2.118,0,0,1-2.138,2.046H89.031V44.762Zm-10.7-6.384V33.8h9.893a2.128,2.128,0,0,1,2.148,2.1v.471a2.128,2.128,0,0,1-2.148,2.1Z" transform="translate(1.847 0.631)"/><path class="a" d="M139.846,41.089v-.153c3.223-.6,4.276-2.957,4.276-5.75,0-4.982-2.343-7.315-6.384-7.745a12.133,12.133,0,0,0-1.524-.082H113.82V55.31h23.213a10.312,10.312,0,0,0,2.987-.389c3.141-.88,4.757-3.376,4.757-7.448C144.778,43.893,143.887,41.816,139.846,41.089Zm-6.353,3.755a2.108,2.108,0,0,1,2.128,2.046v.839a2.108,2.108,0,0,1-2.128,2.046H122.731V44.762ZM122.782,38.46V33.8h9.893a2.128,2.128,0,0,1,2.148,2.1v.471a2.128,2.128,0,0,1-2.148,2.1Z" transform="translate(2.624 0.631)"/><path class="c" d="M124.273,54.69V82.63h-6.4A3.069,3.069,0,0,1,114.8,79.56V54.69Z" transform="translate(2.646 1.261)"/><path class="c" d="M97.023,0V27.991h-6.4a3.069,3.069,0,0,1-3.069-3.12V0Z" transform="translate(2.018)"/><path class="c" d="M0,34.62H27.96v6.4a3.069,3.069,0,0,1-3.069,3.069H0Z" transform="translate(0 0.798)"/><path class="c" d="M195.64,34.62h27.991v6.4a3.069,3.069,0,0,1-3.069,3.069H195.64Z" transform="translate(4.51 0.798)"/><rect class="c" width="228.038" height="83.89" transform="translate(0.02)"/></svg>